<?xml version="1.0" encoding="iso-8859-1"?>
<!-- Generator: Adobe Illustrator 19.0.0, SVG Export Plug-In . SVG Version: 6.00 Build 0)  -->
<svg version="1.1" id="Capa_1" xmlns="http://www.w3.org/2000/svg" xmlns:xlink="http://www.w3.org/1999/xlink" x="0px" y="0px"
	 viewBox="0 0 512.001 512.001" style="enable-background:new 0 0 512.001 512.001;" xml:space="preserve">
<linearGradient id="SVGID_1_" gradientUnits="userSpaceOnUse" x1="3.1416" y1="259.4401" x2="507.9768" y2="259.4401" gradientTransform="matrix(1.0039 0 0 -1.0039 0.1922 516.5618)">
	<stop  offset="0" style="stop-color:#654E48"/>
	<stop  offset="0.445" style="stop-color:#5F4843"/>
	<stop  offset="1" style="stop-color:#503837"/>
</linearGradient>
<path style="fill:url(#SVGID_1_);" d="M116.21,371.053c0-20.169,1.412-40.12,4.166-59.746c0.799-5.696,6.846-9.05,12.12-6.756
	c1.065,0.463,2.132,0.922,3.204,1.374c12.55,5.309,25.281,10.01,38.171,14.107c4.231,1.344,6.747,5.65,5.902,10.007
	c-3.113,16.063-4.709,32.542-4.709,49.266c0,44.443,11.256,87.15,32.394,124.891c1.275,2.277,3.528,3.861,6.103,4.291
	c0.156,0.026,0.312,0.052,0.468,0.077c7.182,1.183,12.555-6.539,8.993-12.885c-19.331-34.446-30.369-74.143-30.369-116.373
	c0-14.725,1.35-29.139,3.919-43.132c0.906-4.93,5.712-8.119,10.595-6.982c32.712,7.616,66.311,11.455,100.495,11.455
	c59.635,0,117.491-11.682,171.962-34.721c8.718-3.687,17.278-7.655,25.692-11.871c2.636-1.321,4.422-3.893,4.778-6.821l0,0
	c0.842-6.926-6.367-11.958-12.603-8.829c-58.199,29.193-122.82,44.654-189.829,44.654c-32.535,0-64.509-3.648-95.46-10.734
	c-5.093-1.166-8.009-6.527-6.288-11.46C238.431,207.72,327.156,140.71,431.249,140.71c16.649,0,32.901,1.726,48.595,4.992
	c3.278,0.682,5.906-2.761,4.387-5.744c-1.567-3.079-3.195-6.123-4.883-9.129c-1.28-2.28-3.54-3.862-6.12-4.286
	c-13.746-2.257-27.771-3.42-41.978-3.42c-68.429,0-132.763,26.647-181.149,75.034c-28.332,28.333-49.204,62.135-61.644,99.023
	c-1.535,4.552-6.401,7.079-10.974,5.611c-15.511-4.979-30.704-10.849-45.515-17.593c-3.807-1.733-5.853-5.908-4.916-9.984
	c17.626-76.691,56.384-147.089,113.4-204.106c22.953-22.952,48.082-42.931,74.908-59.782c2.166-1.361,1.504-4.674-1.018-5.104
	l-15.093-2.574c-2.188-0.373-4.441,0.101-6.279,1.346c-23.176,15.693-44.888,33.61-64.956,53.678
	c-40.569,40.569-72.422,87.813-94.672,140.421c-8.813,20.836-15.958,42.169-21.429,63.907c-1.402,5.575-7.766,8.301-12.77,5.47
	c-7.055-3.993-14.005-8.194-20.839-12.602c-3.11-2.006-4.661-5.722-3.828-9.328c4.36-18.857,6.61-38.343,6.61-58.176
	c0-31.807-5.764-62.727-16.787-91.574c-1.295-3.389-5.836-4.002-8.022-1.107l-4.68,6.194c-1.765,2.336-2.271,5.4-1.307,8.165
	c8.554,24.543,13.209,50.898,13.209,78.321c0,13.37-1.109,26.486-3.236,39.262c-1.083,6.506-8.715,9.52-13.905,5.449
	c-8.755-6.868-22.776-19.609-31.598-27.767c-3.608-3.336-9.497-1.405-10.396,3.425c-0.315,1.698-0.614,3.4-0.898,5.109
	c-0.478,2.894,0.48,5.852,2.622,7.856c13.158,12.309,26.966,23.748,41.387,34.281c3.09,2.257,4.342,6.278,3.095,9.895
	c-8.251,23.955-20.222,46.191-35.21,66.028c-1.755,2.323-2.189,5.38-1.235,8.132c1.032,2.976,2.116,5.926,3.254,8.851
	c1.035,2.66,4.571,3.217,6.375,1.004c17.264-21.175,30.874-44.704,40.486-69.812c1.965-5.132,8.081-7.202,12.766-4.33
	c7.567,4.639,15.277,9.051,23.127,13.231c3.283,1.748,5.079,5.417,4.469,9.085c-3.978,23.952-5.984,48.319-5.984,72.993
	c0,30.861,3.133,61.244,9.346,90.929c0.458,2.189,1.741,4.128,3.586,5.391c3.053,2.09,6.154,4.115,9.3,6.074
	c3.341,2.08,7.508-0.936,6.61-4.768C120.045,437.053,116.21,404.35,116.21,371.053z"/>
<g>
	
		<radialGradient id="SVGID_2_" cx="112.3786" cy="393.6235" r="387.37" gradientTransform="matrix(1.0039 0 0 -1.0039 0.1922 516.5618)" gradientUnits="userSpaceOnUse">
		<stop  offset="0" style="stop-color:#FF931E"/>
		<stop  offset="0.325" style="stop-color:#FF901C"/>
		<stop  offset="0.567" style="stop-color:#FF8717"/>
		<stop  offset="0.781" style="stop-color:#FF770E"/>
		<stop  offset="0.978" style="stop-color:#FF6002"/>
		<stop  offset="1" style="stop-color:#FF5D00"/>
	</radialGradient>
	<path style="fill:url(#SVGID_2_);" d="M129.845,284.224c16.308,7.535,33.086,14.009,50.247,19.395
		c3.136,0.984,6.486-0.714,7.503-3.84c12.325-37.9,33.509-72.627,62.505-101.623c48.387-48.387,112.72-75.034,181.149-75.034
		c12.402,0,24.668,0.887,36.729,2.614c3.711,0.531,6.311-3.569,4.302-6.733C438.438,65.685,385.43,25.732,322.941,8.847
		c-1.594-0.431-3.303-0.178-4.708,0.69c-27.906,17.22-54.011,37.801-77.781,61.571c-57.586,57.586-96.547,128.822-113.922,206.403
		C125.918,280.243,127.303,283.049,129.845,284.224z"/>
	
		<radialGradient id="SVGID_3_" cx="112.3786" cy="393.6235" r="387.37" gradientTransform="matrix(1.0039 0 0 -1.0039 0.1922 516.5618)" gradientUnits="userSpaceOnUse">
		<stop  offset="0" style="stop-color:#FF931E"/>
		<stop  offset="0.325" style="stop-color:#FF901C"/>
		<stop  offset="0.567" style="stop-color:#FF8717"/>
		<stop  offset="0.781" style="stop-color:#FF770E"/>
		<stop  offset="0.978" style="stop-color:#FF6002"/>
		<stop  offset="1" style="stop-color:#FF5D00"/>
	</radialGradient>
	<path style="fill:url(#SVGID_3_);" d="M204.88,303.893c-1.118,3.349,0.904,6.923,4.34,7.736
		c31.879,7.541,64.86,11.428,98.442,11.428c68.262,0,134.045-16.045,193.086-46.306c6.817-3.494,11.153-10.441,11.238-18.101
		c0.01-0.882,0.015-1.766,0.015-2.65c0-37.279-7.983-72.687-22.31-104.633c-1.109-2.473-3.355-4.238-5.999-4.833
		c-16.88-3.805-34.427-5.825-52.441-5.825C326.032,140.71,236.515,209.177,204.88,303.893z"/>
	
		<radialGradient id="SVGID_4_" cx="112.3786" cy="393.6235" r="387.37" gradientTransform="matrix(1.0039 0 0 -1.0039 0.1922 516.5618)" gradientUnits="userSpaceOnUse">
		<stop  offset="0" style="stop-color:#FF931E"/>
		<stop  offset="0.325" style="stop-color:#FF901C"/>
		<stop  offset="0.567" style="stop-color:#FF8717"/>
		<stop  offset="0.781" style="stop-color:#FF770E"/>
		<stop  offset="0.978" style="stop-color:#FF6002"/>
		<stop  offset="1" style="stop-color:#FF5D00"/>
	</radialGradient>
	<path style="fill:url(#SVGID_4_);" d="M102.334,270.254c3.46,1.918,7.796,0.027,8.73-3.817
		c5.572-22.928,13.002-45.412,22.279-67.346c22.251-52.608,54.103-99.851,94.673-140.421c18.875-18.875,39.204-35.846,60.838-50.855
		c2.447-1.698,1.519-5.537-1.437-5.899C277.121,0.655,266.637,0.001,256,0.001c-76.542,0-145.229,33.601-192.141,86.847
		c-1.495,1.697-1.862,4.098-1.022,6.197c11.976,29.908,18.25,62.13,18.25,95.316c0,20.453-2.392,40.536-7.024,59.94
		c-0.589,2.471,0.394,5.06,2.521,6.447C84.997,260.235,93.586,265.403,102.334,270.254z"/>
	
		<radialGradient id="SVGID_5_" cx="112.3786" cy="393.6235" r="387.37" gradientTransform="matrix(1.0039 0 0 -1.0039 0.1922 516.5618)" gradientUnits="userSpaceOnUse">
		<stop  offset="0" style="stop-color:#FF931E"/>
		<stop  offset="0.325" style="stop-color:#FF901C"/>
		<stop  offset="0.567" style="stop-color:#FF8717"/>
		<stop  offset="0.781" style="stop-color:#FF770E"/>
		<stop  offset="0.978" style="stop-color:#FF6002"/>
		<stop  offset="1" style="stop-color:#FF5D00"/>
	</radialGradient>
	<path style="fill:url(#SVGID_5_);" d="M256,512.001c125.106,0,229.233-89.748,251.557-208.369c0.907-4.816-4.06-8.643-8.474-6.514
		c-6.4,3.086-12.884,6.026-19.459,8.806c-54.47,23.039-112.327,34.721-171.962,34.721c-35.156,0-69.693-4.061-103.283-12.113
		c-3.296-0.79-6.587,1.352-7.241,4.678c-2.935,14.919-4.484,30.329-4.484,46.096c0,43.421,11.67,84.163,32.023,119.273
		c4.568,7.88,12.843,12.909,21.946,13.248C249.734,511.941,252.86,512.001,256,512.001z"/>
	
		<radialGradient id="SVGID_6_" cx="112.3786" cy="393.6235" r="387.37" gradientTransform="matrix(1.0039 0 0 -1.0039 0.1922 516.5618)" gradientUnits="userSpaceOnUse">
		<stop  offset="0" style="stop-color:#FF931E"/>
		<stop  offset="0.325" style="stop-color:#FF901C"/>
		<stop  offset="0.567" style="stop-color:#FF8717"/>
		<stop  offset="0.781" style="stop-color:#FF770E"/>
		<stop  offset="0.978" style="stop-color:#FF6002"/>
		<stop  offset="1" style="stop-color:#FF5D00"/>
	</radialGradient>
	<path style="fill:url(#SVGID_6_);" d="M7.094,222.631c-1.845-1.716-4.857-0.599-5.165,1.9C0.661,234.844,0,245.345,0,256.001
		c0,25.311,3.687,49.757,10.533,72.848c0.833,2.81,4.541,3.465,6.284,1.108c14.706-19.879,26.408-42.11,34.413-66.02
		c0.84-2.51-0.03-5.262-2.173-6.813C34.43,246.541,20.43,235.032,7.094,222.631z"/>
	
		<radialGradient id="SVGID_7_" cx="112.3786" cy="393.6235" r="387.37" gradientTransform="matrix(1.0039 0 0 -1.0039 0.1922 516.5618)" gradientUnits="userSpaceOnUse">
		<stop  offset="0" style="stop-color:#FF931E"/>
		<stop  offset="0.325" style="stop-color:#FF901C"/>
		<stop  offset="0.567" style="stop-color:#FF8717"/>
		<stop  offset="0.781" style="stop-color:#FF770E"/>
		<stop  offset="0.978" style="stop-color:#FF6002"/>
		<stop  offset="1" style="stop-color:#FF5D00"/>
	</radialGradient>
	<path style="fill:url(#SVGID_7_);" d="M175.066,379.305c0-17.565,1.76-34.859,5.189-51.684c0.613-3.008-1.189-5.963-4.12-6.878
		c-13.664-4.263-27.151-9.201-40.435-14.82l-6.479-2.742c-3.646-1.543-7.766,0.775-8.349,4.692
		c-3.081,20.732-4.662,41.833-4.662,63.179c0,36.003,4.484,71.313,13.134,105.315c0.408,1.601,1.459,2.971,2.903,3.771
		c21.116,11.684,44.056,20.471,68.288,25.824c3.5,0.773,6.269-2.891,4.579-6.052C185.491,463.236,175.066,422.074,175.066,379.305z"
		/>
	
		<radialGradient id="SVGID_8_" cx="112.3786" cy="393.6235" r="387.37" gradientTransform="matrix(1.0039 0 0 -1.0039 0.1922 516.5618)" gradientUnits="userSpaceOnUse">
		<stop  offset="0" style="stop-color:#FF931E"/>
		<stop  offset="0.325" style="stop-color:#FF901C"/>
		<stop  offset="0.567" style="stop-color:#FF8717"/>
		<stop  offset="0.781" style="stop-color:#FF770E"/>
		<stop  offset="0.978" style="stop-color:#FF6002"/>
		<stop  offset="1" style="stop-color:#FF5D00"/>
	</radialGradient>
	<path style="fill:url(#SVGID_8_);" d="M98.622,371.053c0-25.321,2.113-50.32,6.301-74.875c0.438-2.567-0.818-5.109-3.121-6.323
		c-9.418-4.961-18.635-10.258-27.646-15.876c-3.225-2.011-7.456-0.513-8.769,3.052c-8.971,24.366-21.681,47.289-37.823,68.071
		c-4.795,6.173-5.851,14.508-2.468,21.555c17.714,36.896,44.009,68.888,76.301,93.393c2.539,1.927,6.103-0.269,5.488-3.396
		C101.392,428.664,98.622,400.069,98.622,371.053z"/>
	
		<radialGradient id="SVGID_9_" cx="112.3786" cy="393.6235" r="387.37" gradientTransform="matrix(1.0039 0 0 -1.0039 0.1922 516.5618)" gradientUnits="userSpaceOnUse">
		<stop  offset="0" style="stop-color:#FF931E"/>
		<stop  offset="0.325" style="stop-color:#FF901C"/>
		<stop  offset="0.567" style="stop-color:#FF8717"/>
		<stop  offset="0.781" style="stop-color:#FF770E"/>
		<stop  offset="0.978" style="stop-color:#FF6002"/>
		<stop  offset="1" style="stop-color:#FF5D00"/>
	</radialGradient>
	<path style="fill:url(#SVGID_9_);" d="M63.5,188.361c0-26.81-4.448-52.599-12.641-76.673c-0.853-2.508-4.214-2.999-5.73-0.826
		c-15.971,22.89-29.206,52.116-37.005,80.62c-1.081,3.951,0.153,8.171,3.178,10.934c8.768,8.008,27.374,24.79,38.64,33.438
		c3.555,2.729,8.704,0.693,9.525-3.712C62.114,217.945,63.5,203.313,63.5,188.361z"/>
</g>
<g>
</g>
<g>
</g>
<g>
</g>
<g>
</g>
<g>
</g>
<g>
</g>
<g>
</g>
<g>
</g>
<g>
</g>
<g>
</g>
<g>
</g>
<g>
</g>
<g>
</g>
<g>
</g>
<g>
</g>
</svg>
