<svg width="254" height="62" viewBox="0 0 254 62" fill="none" xmlns="http://www.w3.org/2000/svg">
<path d="M22.64 46.896C18.3733 46.896 14.5547 45.936 11.184 44.016C7.856 42.096 5.25333 39.3867 3.376 35.888C1.49867 32.3467 0.56 28.2507 0.56 23.6C0.56 18.9493 1.49867 14.8747 3.376 11.376C5.25333 7.83467 7.856 5.104 11.184 3.184C14.5547 1.264 18.3733 0.303997 22.64 0.303997C26.9067 0.303997 30.704 1.264 34.032 3.184C37.4027 5.104 40.0267 7.83467 41.904 11.376C43.7813 14.8747 44.72 18.9493 44.72 23.6C44.72 28.2507 43.7813 32.3467 41.904 35.888C40.0267 39.3867 37.4027 42.096 34.032 44.016C30.704 45.936 26.9067 46.896 22.64 46.896ZM22.64 41.008C25.968 41.008 28.8053 40.2613 31.152 38.768C33.4987 37.232 35.248 35.1627 36.4 32.56C37.5947 29.9147 38.192 26.928 38.192 23.6C38.192 20.272 37.5947 17.3067 36.4 14.704C35.248 12.0587 33.4987 9.98933 31.152 8.496C28.8053 6.96 25.968 6.192 22.64 6.192C19.312 6.192 16.4747 6.96 14.128 8.496C11.7813 9.98933 10.0107 12.0587 8.816 14.704C7.664 17.3067 7.088 20.272 7.088 23.6C7.088 26.928 7.664 29.9147 8.816 32.56C10.0107 35.1627 11.7813 37.232 14.128 38.768C16.4747 40.2613 19.312 41.008 22.64 41.008ZM66.6525 14C69.4258 14 71.8365 14.7253 73.8845 16.176C75.9752 17.584 77.5752 19.5253 78.6845 22C79.7938 24.4747 80.3485 27.248 80.3485 30.32C80.3485 33.4347 79.8152 36.2293 78.7485 38.704C77.7245 41.136 76.1885 43.0773 74.1405 44.528C72.0925 45.936 69.5965 46.64 66.6525 46.64C64.4765 46.64 62.4925 46.256 60.7005 45.488C58.9085 44.72 57.5005 43.6107 56.4765 42.16V61.488H50.7165V14.64H55.1965L55.8365 18.992C58.4818 15.664 62.0872 14 66.6525 14ZM65.5645 41.52C68.3378 41.52 70.5138 40.5387 72.0925 38.576C73.6712 36.5707 74.4605 33.8187 74.4605 30.32C74.4605 26.8213 73.6712 24.0907 72.0925 22.128C70.5138 20.1227 68.3378 19.12 65.5645 19.12C62.8338 19.12 60.5725 20.08 58.7805 22C57.0312 23.92 56.1565 26.6933 56.1565 30.32C56.1565 34.0747 57.0312 36.8907 58.7805 38.768C60.5298 40.6027 62.7912 41.52 65.5645 41.52ZM101.382 46.64C97.7975 46.64 94.7255 45.9147 92.1655 44.464C89.6482 42.9707 87.7282 40.9653 86.4055 38.448C85.0828 35.9307 84.4215 33.136 84.4215 30.064C84.4215 27.12 85.0188 24.432 86.2135 22C87.4508 19.5253 89.2215 17.584 91.5255 16.176C93.8722 14.7253 96.6242 14 99.7815 14C103.792 14 107.035 15.1733 109.51 17.52C112.027 19.8667 113.286 23.1093 113.286 27.248C113.286 28.3147 113.2 29.3387 113.03 30.32H90.3095C90.6935 34.3733 91.9308 37.2533 94.0215 38.96C96.1122 40.6667 98.8002 41.52 102.086 41.52C105.371 41.52 108.379 40.9013 111.11 39.664L111.878 44.208C108.251 45.8293 104.752 46.64 101.382 46.64ZM107.334 26.352C107.334 24.0907 106.694 22.32 105.414 21.04C104.134 19.76 102.214 19.12 99.6535 19.12C97.1788 19.12 95.2375 19.7387 93.8295 20.976C92.4215 22.1707 91.4188 23.9627 90.8215 26.352H107.334ZM134.58 14C143.113 14 147.38 18.9067 147.38 28.72V46H141.62V28.72C141.62 25.3493 140.98 22.9173 139.7 21.424C138.462 19.888 136.372 19.12 133.428 19.12C131.55 19.12 129.844 19.4613 128.308 20.144C126.772 20.8267 125.62 21.8507 124.852 23.216V46H119.092V14.64H123.572L124.212 17.968C125.876 16.4747 127.54 15.4507 129.204 14.896C130.91 14.2987 132.702 14 134.58 14ZM154.933 1.2H169.461C174.325 1.2 178.122 2.33066 180.853 4.592C183.583 6.81067 184.949 10.224 184.949 14.832C184.949 20.8053 182.346 25.008 177.141 27.44L187.189 46H179.765L170.677 28.528H170.357H161.333V46H154.933V1.2ZM169.397 23.088C172.383 23.088 174.666 22.3627 176.245 20.912C177.823 19.4613 178.613 17.4347 178.613 14.832C178.613 12.2293 177.823 10.224 176.245 8.816C174.709 7.36533 172.426 6.64 169.397 6.64H161.333V23.088H169.397ZM217.257 14.64V46H212.137L211.497 42.544C210.473 43.952 209.257 44.9973 207.849 45.68C206.484 46.32 204.798 46.64 202.793 46.64C199.038 46.64 196.158 45.5093 194.153 43.248C192.19 40.944 191.209 37.488 191.209 32.88V14.64H196.969V31.28C196.969 34.6933 197.545 37.2533 198.697 38.96C199.892 40.6667 201.748 41.52 204.265 41.52C205.758 41.52 207.145 41.2213 208.425 40.624C209.748 40.0267 210.772 39.152 211.497 38V14.64H217.257ZM240.58 14C249.113 14 253.38 18.9067 253.38 28.72V46H247.62V28.72C247.62 25.3493 246.98 22.9173 245.7 21.424C244.462 19.888 242.372 19.12 239.428 19.12C237.55 19.12 235.844 19.4613 234.308 20.144C232.772 20.8267 231.62 21.8507 230.852 23.216V46H225.092V14.64H229.572L230.212 17.968C231.876 16.4747 233.54 15.4507 235.204 14.896C236.91 14.2987 238.702 14 240.58 14Z" fill="white"/>
</svg>
